HIERARCHY
ROOT Hips
{
    OFFSET 0.000000 0.000000 0.000000
    CHANNELS 6 Xposition Yposition Zposition Zrotation Xrotation Yrotation
    JOINT Spine
    {
        OFFSET -0.000000 8.505030 0.000000
        CHANNELS 3 Zrotation Xrotation Yrotation
        JOINT Spine1
        {
            OFFSET -0.000000 25.070629 0.000000
            CHANNELS 3 Zrotation Xrotation Yrotation
            JOINT Neck
            {
                OFFSET -0.000000 24.967667 2.269788
                CHANNELS 3 Zrotation Xrotation Yrotation
                JOINT Head
                {
                    OFFSET -0.000000 14.520781 -2.074397
                    CHANNELS 3 Zrotation Xrotation Yrotation
                    End Site
                    {
                        OFFSET -0.000000 25.929966 0.000000
                    }
                }
            }
            JOINT LeftShoulder
            {
                OFFSET 4.117346 22.983784 -0.389865
                CHANNELS 3 Zrotation Xrotation Yrotation
                JOINT LeftArm
                {
                    OFFSET 11.957758 0.000000 0.000000
                    CHANNELS 3 Zrotation Xrotation Yrotation
                    JOINT LeftForeArm
                    {
                        OFFSET 31.907600 0.000000 0.000000
                        CHANNELS 3 Zrotation Xrotation Yrotation
                        JOINT LeftHand
                        {
                            OFFSET 28.601147 0.000000 0.000000
                            CHANNELS 3 Zrotation Xrotation Yrotation
                            End Site
                            {
                                OFFSET 15.557981 0.000000 0.000000
                            }
                        }
                    }
                }
            }
            JOINT RightShoulder
            {
                OFFSET -4.061940 22.983784 -0.389865
                CHANNELS 3 Zrotation Xrotation Yrotation
                JOINT RightArm
                {
                    OFFSET -11.957758 0.000000 0.000000
                    CHANNELS 3 Zrotation Xrotation Yrotation
                    JOINT RightForeArm
                    {
                        OFFSET -31.907600 0.000000 0.000000
                        CHANNELS 3 Zrotation Xrotation Yrotation
                        JOINT RightHand
                        {
                            OFFSET -28.601147 0.000000 0.000000
                            CHANNELS 3 Zrotation Xrotation Yrotation
                            End Site
                            {
                                OFFSET -15.557981 0.000000 0.000000
                            }
                        }
                    }
                }
            }
        }
    }
    JOINT LeftUpLeg
    {
        OFFSET 10.371986 0.000000 0.000000
        CHANNELS 3 Zrotation Xrotation Yrotation
        JOINT LeftLeg
        {
            OFFSET -0.000000 -42.486427 0.000000
            CHANNELS 3 Zrotation Xrotation Yrotation
            JOINT LeftFoot
            {
                OFFSET -0.000000 -48.322342 0.000000
                CHANNELS 3 Zrotation Xrotation Yrotation
                JOINT LeftToeBase
                {
                    OFFSET -0.000000 -6.741791 15.557981
                    CHANNELS 3 Zrotation Xrotation Yrotation
                    End Site
                    {
                        OFFSET -0.000000 0.000000 4.148795
                    }
                }
            }
        }
    }
    JOINT RightUpLeg
    {
        OFFSET -10.371986 0.000000 0.000000
        CHANNELS 3 Zrotation Xrotation Yrotation
        JOINT RightLeg
        {
            OFFSET -0.000000 -42.486427 0.000000
            CHANNELS 3 Zrotation Xrotation Yrotation
            JOINT RightFoot
            {
                OFFSET -0.000000 -48.322342 0.000000
                CHANNELS 3 Zrotation Xrotation Yrotation
                JOINT RightToeBase
                {
                    OFFSET -0.000000 -6.741791 15.557981
                    CHANNELS 3 Zrotation Xrotation Yrotation
                    End Site
                    {
                        OFFSET -0.000000 0.000000 4.148795
                    }
                }
            }
        }
    }
}
MOTION
Frames:    4
Frame Time:    0.008333
-42.976128    97.446709    59.278690    -3.353901    -1.476264    88.158554    -3.097828    -7.872019    0.263095    4.671851    -0.424966    0.493608    -4.117328    27.117994    -5.019038    3.441878    11.694101    -5.524581    3.809362    3.626926    -7.817629    -78.911377    46.959621    -4.582114    -0.367966    -8.952473    2.694134    -16.666040    -8.191525    -5.191025    -13.969417    6.868504    -15.887372    70.486176    62.660801    16.756639    1.500282    -7.929978    0.798565    29.797089    -7.629659    1.178640    -0.904229    -7.949111    -2.202567    -1.360440    15.707487    1.884284    1.969546    -11.915674    9.307870    0.000000    0.000000    0.000000    -1.101527    -13.123777    2.400826    10.404470    60.945614    -12.005502    2.754327    -3.520168    -9.699602    0.000000    0.000000    0.000000    
-42.022415    97.555992    59.223835    -3.208754    -1.625772    88.512207    -3.003419    -7.771513    -0.018146    4.594583    -0.335141    0.199549    -3.895965    27.077244    -5.018422    3.128065    12.060908    -5.521829    3.975740    3.449038    -7.809611    -78.755516    46.930397    -4.681582    -0.293168    -9.063136    2.667876    -16.325874    -8.329143    -5.125359    -13.938139    6.892472    -16.005341    70.822021    62.643158    16.468277    1.578348    -7.971479    0.746079    29.552723    -7.663773    1.216517    -0.821181    -7.040326    -1.837845    -1.206370    15.298971    1.565248    1.616079    -11.954235    8.932405    0.000000    0.000000    0.000000    -1.064124    -13.901585    2.311502    11.369064    60.603130    -12.704022    2.446931    -4.331090    -9.933315    0.000000    0.000000    0.000000    
-41.068035    97.670456    59.182888    -3.092253    -1.806825    88.740196    -2.887779    -7.684507    -0.184033    4.537631    -0.289326    0.027444    -4.127019    26.813139    -5.108412    3.627557    12.998847    -5.641161    4.140784    3.375805    -7.864415    -78.487297    46.903576    -4.896560    -0.125437    -9.155597    2.600229    -15.998797    -8.474168    -4.883545    -13.817397    6.939569    -16.173771    71.206070    62.389618    16.024128    1.727555    -7.819388    0.759437    29.544312    -7.578521    0.965208    -0.672857    -6.098169    -1.379217    -1.081875    14.812951    1.073870    1.340739    -11.978500    8.786082    0.000000    0.000000    0.000000    -0.845257    -14.681340    1.999185    11.195270    60.077099    -12.614060    2.407543    -4.772237    -9.823287    0.000000    0.000000    0.000000    
-40.150875    97.769272    59.133202    -3.015187    -1.962408    88.935730    -2.723141    -7.565827    -0.359709    4.414933    -0.321862    -0.167399    -4.098273    26.680323    -5.155781    3.622142    13.631525    -5.702960    4.332090    3.316184    -7.795318    -78.289200    47.110760    -5.086974    0.208803    -9.360482    2.601767    -16.353798    -8.661549    -4.954686    -13.791662    7.030756    -16.408964    71.599335    62.678085    15.681787    1.561669    -8.164356    0.795480    29.462099    -7.896444    1.070334    -0.561676    -5.249228    -0.876066    -0.936491    14.338287    1.111395    0.938344    -11.965852    8.079259    0.000000    0.000000    0.000000    -0.755133    -15.586121    2.075820    11.869626    59.515484    -12.872135    3.018174    -5.380315    -10.197704    0.000000    0.000000    0.000000    
